# xmcd
# 
# Track frame offsets:
#     182
#     27625
#     53292
#     74717
#     99167
#     130420
#     162415
#     186695
#     201727
#     221927
#     240425
# 
# Disc length: 3471
# 
# Revision: 1
# Processed by: cddbd v1.5.2PL0 Copyright (c) Steve Scherf et al.
# Submitted via: BonkEnc v1.0.8
# 
DISCID=af0d8d0b
DTITLE=Richie Beirach, Andy LaVerne - Universal Mind
DYEAR=1993
DGENRE=Contemporary Jazz
TTITLE0=Solar
TTITLE1=All the things you are
TTITLE2=I loves you porgy
TTITLE3=Haunted Hert
TTITLE4=Chappaqua
TTITLE5=Blue in green
TTITLE6=ELM
TTITLE7=The town hall suite: 1 Prologue
TTITLE8=The town hall suite: 2 Story line
TTITLE9=The town hall suite: 3 Turn of the stars
TTITLE10=The town hall suite: 4 Epilogue
EXTD=
EXTT0=
EXTT1=
EXTT2=
EXTT3=
EXTT4=
EXTT5=
EXTT6=
EXTT7=
EXTT8=
EXTT9=
EXTT10=
PLAYORDER=
